<?xml version="1.0" standalone="no"?>
<svg xmlns:xlink="http://www.w3.org/1999/xlink" id="wave" style="transform:rotate(180deg); transition: 0.3s" viewBox="0 0 1440 100" version="1.1" xmlns="http://www.w3.org/2000/svg"><defs><linearGradient id="sw-gradient-0" x1="0" x2="0" y1="1" y2="0"><stop stop-color="rgba(241, 236, 237, 1)" offset="0%"/><stop stop-color="rgba(241, 236, 237, 1)" offset="100%"/></linearGradient></defs><path style="transform:translate(0, 0px); opacity:1" fill="url(#sw-gradient-0)" d="M0,20L21.8,30C43.6,40,87,60,131,68.3C174.5,77,218,73,262,75C305.5,77,349,83,393,83.3C436.4,83,480,77,524,66.7C567.3,57,611,43,655,46.7C698.2,50,742,70,785,68.3C829.1,67,873,43,916,38.3C960,33,1004,47,1047,50C1090.9,53,1135,47,1178,40C1221.8,33,1265,27,1309,30C1352.7,33,1396,47,1440,45C1483.6,43,1527,27,1571,26.7C1614.5,27,1658,43,1702,43.3C1745.5,43,1789,27,1833,23.3C1876.4,20,1920,30,1964,40C2007.3,50,2051,60,2095,61.7C2138.2,63,2182,57,2225,50C2269.1,43,2313,37,2356,30C2400,23,2444,17,2487,13.3C2530.9,10,2575,10,2618,13.3C2661.8,17,2705,23,2749,33.3C2792.7,43,2836,57,2880,53.3C2923.6,50,2967,30,3011,28.3C3054.5,27,3098,43,3120,51.7L3141.8,60L3141.8,100L3120,100C3098.2,100,3055,100,3011,100C2967.3,100,2924,100,2880,100C2836.4,100,2793,100,2749,100C2705.5,100,2662,100,2618,100C2574.5,100,2531,100,2487,100C2443.6,100,2400,100,2356,100C2312.7,100,2269,100,2225,100C2181.8,100,2138,100,2095,100C2050.9,100,2007,100,1964,100C1920,100,1876,100,1833,100C1789.1,100,1745,100,1702,100C1658.2,100,1615,100,1571,100C1527.3,100,1484,100,1440,100C1396.4,100,1353,100,1309,100C1265.5,100,1222,100,1178,100C1134.5,100,1091,100,1047,100C1003.6,100,960,100,916,100C872.7,100,829,100,785,100C741.8,100,698,100,655,100C610.9,100,567,100,524,100C480,100,436,100,393,100C349.1,100,305,100,262,100C218.2,100,175,100,131,100C87.3,100,44,100,22,100L0,100Z"/></svg>